<?xml version="1.0" encoding="UTF-8"?>
<svg width="16px" height="13px" viewBox="0 0 16 13" version="1.1" xmlns="http://www.w3.org/2000/svg" xmlns:xlink="http://www.w3.org/1999/xlink">
    <!-- Generator: Sketch 49.3 (51167) - http://www.bohemiancoding.com/sketch -->
    <title>ico_telegram</title>
    <desc>Created with Sketch.</desc>
    <defs></defs>
    <g id="Main" stroke="none" stroke-width="1" fill="none" fill-rule="evenodd" opacity="0.3">
        <g id="Crypto-Investing-Toolkit---2nd-slide" transform="translate(-1034.000000, -38.000000)" fill="#FFFFFF">
            <g id="socials" transform="translate(878.000000, 36.000000)">
                <path d="M168.255986,14.8564611 C168.470648,15.0046613 168.747308,15.0417113 168.993969,14.9507112 C169.240631,14.8590611 169.42196,14.6536609 169.476625,14.4047106 C170.055945,11.7501075 171.461247,5.03104982 171.988568,2.61629705 C172.028567,2.43429684 171.961902,2.24514662 171.815239,2.12359648 C171.668575,2.00204634 171.465247,1.9669463 171.283917,2.03259637 C168.488648,3.04139753 159.880177,6.19065115 156.36159,7.46010261 C156.138262,7.5407027 155.992932,7.75000294 156.000265,7.97945321 C156.008265,8.20955347 156.166928,8.4091037 156.39559,8.47605378 C157.973554,8.93625431 160.04484,9.57650504 160.04484,9.57650504 C160.04484,9.57650504 161.012818,12.4267583 161.517473,13.87626 C161.580805,14.0582602 161.726802,14.2012604 161.919464,14.2506604 C162.111459,14.2994105 162.316788,14.2480604 162.460118,14.1161103 C163.270766,13.3699094 164.524071,12.2161581 164.524071,12.2161581 C164.524071,12.2161581 166.90535,13.91851 168.255986,14.8564611 Z M160.916153,9.21640463 L162.035461,12.8161088 L162.284122,10.5365561 C162.284122,10.5365561 166.60869,6.73340178 169.073968,4.56564928 C169.145966,4.50194921 169.155966,4.39534909 169.095967,4.320599 C169.036635,4.24584892 168.927304,4.2282989 168.845306,4.27899896 C165.988038,6.058051 160.916153,9.21640463 160.916153,9.21640463 Z" id="ico_telegram"></path>
            </g>
        </g>
    </g>
</svg>