<?xml version="1.0" encoding="UTF-8"?>
<svg width="16px" height="13px" viewBox="0 0 16 13" version="1.1" xmlns="http://www.w3.org/2000/svg" xmlns:xlink="http://www.w3.org/1999/xlink">
    <!-- Generator: Sketch 49.3 (51167) - http://www.bohemiancoding.com/sketch -->
    <title>ico_twitter</title>
    <desc>Created with Sketch.</desc>
    <defs></defs>
    <g id="Main" stroke="none" stroke-width="1" fill="none" fill-rule="evenodd" opacity="0.3">
        <g id="Crypto-Investing-Toolkit---2nd-slide" transform="translate(-1065.000000, -38.000000)" fill="#FFFFFF" fill-rule="nonzero">
            <g id="socials" transform="translate(878.000000, 36.000000)">
                <path d="M203,3.53901764 C202.411333,3.80029737 201.778667,3.97626128 201.114667,4.05557834 C201.792667,3.64966161 202.313333,3.00646021 202.558,2.23995078 C201.924,2.61587367 201.221333,2.88915094 200.473333,3.03645406 C199.875333,2.39858491 199.021333,2 198.077333,2 C195.958,2 194.400667,3.97692781 194.879333,6.0291735 C192.152,5.89253486 189.733333,4.58613618 188.114,2.60054348 C187.254,4.07557424 187.668,6.00517842 189.129333,6.98231132 C188.592,6.96498154 188.085333,6.81767842 187.643333,6.57172888 C187.607333,8.09208368 188.697333,9.51445857 190.276,9.8310603 C189.814,9.95636792 189.308,9.98569524 188.793333,9.88704881 C189.210667,11.1907814 190.422667,12.1392535 191.86,12.1659147 C190.48,13.2476928 188.741333,13.730927 187,13.5256358 C188.452667,14.4567781 190.178667,15 192.032,15 C198.126667,15 201.57,9.85372231 201.362,5.23800246 C202.003333,4.77476415 202.56,4.19688269 203,3.53901764 Z" id="ico_twitter"></path>
            </g>
        </g>
    </g>
</svg>