<?xml version="1.0" encoding="utf-8"?>
<!-- Generator: Adobe Illustrator 22.1.0, SVG Export Plug-In . SVG Version: 6.00 Build 0)  -->
<svg version="1.1" id="Layer_1" xmlns="http://www.w3.org/2000/svg" xmlns:xlink="http://www.w3.org/1999/xlink" x="0px" y="0px"
	 viewBox="0 0 831.139 210.126" enable-background="new 0 0 831.139 210.126" xml:space="preserve">
<path d="M1186.673-1322.934"/>
<g>
	<g>
		<g>
			<path fill="#FFFFFF" d="M228.585,128.709V79.956h26.022c11.403,0,17.542,7.601,17.542,16.738c0,9.064-6.139,16.665-17.542,16.665
				H243.35v15.351H228.585z M257.165,96.694c0-2.632-1.974-3.874-4.459-3.874h-9.356v7.675h9.356
				C255.191,100.495,257.165,99.252,257.165,96.694z"/>
		</g>
	</g>
	<g>
		<g>
			<path fill="#FFFFFF" d="M299.806,128.709v-3.363c-1.973,2.485-6.285,4.24-10.671,4.24c-5.263,0-12.134-3.581-12.134-11.623
				c0-8.771,6.871-11.255,12.134-11.255c4.605,0,8.771,1.462,10.671,3.874v-3.655c0-2.486-2.266-4.386-6.578-4.386
				c-3.29,0-7.017,1.316-9.795,3.435l-4.458-8.113c4.75-3.801,11.329-5.336,16.665-5.336c8.772,0,17.324,3.07,17.324,14.838v21.344
				H299.806z M299.806,119.133v-1.973c-0.876-1.243-3.142-1.9-5.19-1.9c-2.192,0-4.605,0.73-4.605,2.923s2.412,2.852,4.605,2.852
				C296.664,121.035,298.93,120.376,299.806,119.133z"/>
		</g>
	</g>
	<g>
		<g>
			<path fill="#FFFFFF" d="M347.3,128.709v-19.517c0-3.654-1.973-5.042-5.116-5.042c-2.997,0-4.532,1.535-5.629,2.777v21.782
				h-13.157V93.405h13.157v4.02c2.047-2.339,5.921-4.897,12.134-4.897c8.186,0,11.767,4.97,11.767,11.11v25.072H347.3z"/>
		</g>
	</g>
	<g>
		<g>
			<path fill="#FFFFFF" d="M394.524,128.709v-3.728c-2.996,3.361-6.359,4.605-9.941,4.605c-8.552,0-15.569-6.433-15.569-18.565
				c0-11.695,6.871-18.493,15.569-18.493c3.582,0,7.164,1.242,9.941,4.605V79.956h13.157v48.753H394.524z M394.524,115.551v-9.064
				c-1.242-1.535-3.728-2.338-5.482-2.338c-3.581,0-6.579,2.485-6.579,6.87c0,4.385,2.997,6.943,6.579,6.943
				C390.796,117.963,393.281,117.086,394.524,115.551z"/>
		</g>
	</g>
	<g>
		<g>
			<path fill="#FFFFFF" d="M439.043,128.709v-3.363c-1.973,2.485-6.285,4.24-10.671,4.24c-5.263,0-12.134-3.581-12.134-11.623
				c0-8.771,6.871-11.255,12.134-11.255c4.605,0,8.771,1.462,10.671,3.874v-3.655c0-2.486-2.266-4.386-6.578-4.386
				c-3.29,0-7.017,1.316-9.795,3.435l-4.458-8.113c4.75-3.801,11.329-5.336,16.665-5.336c8.772,0,17.324,3.07,17.324,14.838v21.344
				H439.043z M439.043,119.133v-1.973c-0.877-1.243-3.142-1.9-5.19-1.9c-2.192,0-4.605,0.73-4.605,2.923s2.412,2.852,4.605,2.852
				C435.901,121.035,438.166,120.376,439.043,119.133z"/>
		</g>
	</g>
	<g>
		<g>
			<path fill="#FFFFFF" d="M503.479,128.709l-4.311-10.818h-24.269l-4.311,10.818h-6.945l19.589-48.753h7.53l19.662,48.753H503.479z
				 M487.034,86.241l-10.379,26.241h20.685L487.034,86.241z"/>
		</g>
	</g>
	<g>
		<g>
			<path fill="#FFFFFF" d="M544.739,128.709v-23.098c0-6.213-3.143-8.187-7.894-8.187c-4.313,0-8.406,2.632-10.453,5.482v25.802
				h-5.483V93.405h5.483v5.116c2.485-2.924,7.31-5.994,12.573-5.994c7.383,0,11.256,3.728,11.256,11.403v24.779H544.739z"/>
		</g>
	</g>
	<g>
		<g>
			<path fill="#FFFFFF" d="M583.828,128.709v-4.022c-2.923,3.216-6.945,4.898-11.696,4.898c-5.993,0-12.352-4.02-12.352-11.694
				c0-7.895,6.36-11.623,12.352-11.623c4.825,0,8.844,1.535,11.696,4.825v-6.36c0-4.75-3.802-7.455-8.918-7.455
				c-4.24,0-7.674,1.535-10.818,4.897l-2.558-3.801c3.801-3.947,8.333-5.848,14.107-5.848c7.454,0,13.667,3.362,13.667,11.914
				v24.268H583.828z M583.828,121.253v-6.651c-2.12-2.923-5.848-4.386-9.721-4.386c-5.116,0-8.7,3.216-8.7,7.748
				c0,4.46,3.583,7.676,8.7,7.676C577.98,125.639,581.708,124.176,583.828,121.253z"/>
		</g>
	</g>
	<g>
		<g>
			<path fill="#FFFFFF" d="M601.721,128.862V80.108h5.483v48.753H601.721z"/>
		</g>
	</g>
	<g>
		<g>
			<path fill="#FFFFFF" d="M621.11,137.553c0.803,0.365,2.118,0.585,2.996,0.585c2.411,0,4.02-0.805,5.263-3.728l2.338-5.336
				l-14.764-35.669h5.919l11.769,28.945l11.694-28.945h5.995l-17.689,42.467c-2.12,5.116-5.701,7.089-10.379,7.163
				c-1.17,0-2.998-0.218-4.022-0.512L621.11,137.553z"/>
		</g>
	</g>
	<g>
		<g>
			<path fill="#FFFFFF" d="M665.542,121.326V98.229h-5.846v-4.824h5.846v-9.649h5.483v9.649h7.163v4.824h-7.163v21.928
				c0,2.632,1.17,4.531,3.581,4.531c1.535,0,2.996-0.656,3.728-1.462l1.608,4.093c-1.39,1.317-3.363,2.267-6.58,2.267
				C668.173,129.585,665.542,126.589,665.542,121.326z"/>
		</g>
	</g>
	<g>
		<g>
			<path fill="#FFFFFF" d="M688.657,84.706c0-2.047,1.682-3.727,3.655-3.727c2.047,0,3.728,1.681,3.728,3.727
				c0,2.047-1.682,3.655-3.728,3.655C690.339,88.361,688.657,86.753,688.657,84.706z M689.607,128.709V93.405h5.483v35.304H689.607z
				"/>
		</g>
	</g>
	<g>
		<g>
			<path fill="#FFFFFF" d="M705.034,111.02c0-10.453,7.091-18.493,17.615-18.493c6.433,0,10.234,2.632,12.939,6.14l-3.655,3.362
				c-2.34-3.216-5.336-4.606-8.991-4.606c-7.53,0-12.208,5.775-12.208,13.596s4.678,13.667,12.208,13.667
				c3.655,0,6.651-1.462,8.991-4.605l3.655,3.363c-2.705,3.508-6.506,6.14-12.939,6.14
				C712.125,129.585,705.034,121.546,705.034,111.02z"/>
		</g>
	</g>
	<g>
		<g>
			<path fill="#FFFFFF" d="M744.501,124.031l2.852-3.948c2.338,2.705,6.798,5.045,11.623,5.045c5.408,0,8.331-2.558,8.331-6.068
				c0-8.551-21.853-3.288-21.853-16.372c0-5.482,4.749-10.16,13.156-10.16c5.995,0,10.234,2.267,13.084,5.117l-2.558,3.801
				c-2.12-2.558-5.993-4.459-10.526-4.459c-4.823,0-7.821,2.412-7.821,5.555c0,7.747,21.855,2.632,21.855,16.373
				c0,5.919-4.751,10.671-13.887,10.671C752.98,129.585,748.082,127.831,744.501,124.031z"/>
		</g>
	</g>
</g>
<g>
	<g>
		<g>
			<g>
				<g>
					<g>
						<path fill="#FFFFFF" d="M137.98,52.411c10.258-11.335,27.764-12.208,39.099-1.95c11.335,10.258,12.208,27.764,1.95,39.099"/>
					</g>
				</g>
			</g>
		</g>
		<g>
			<g>
				<g>
					<g>
						<path fill="#FFFFFF" d="M110.72,52.411c-10.258-11.335-27.764-12.208-39.099-1.95s-12.208,27.764-1.95,39.099"/>
					</g>
				</g>
			</g>
		</g>
		<g>
			<g>
				<g>
					<g>
						<g>
							<path fill="#FFFFFF" d="M103.021,114.075c3.123-1.905,5.611-4.673,7.98-7.416c3.008-3.483,7.467-6.96,8.44-11.662
								c0.859-4.148-0.585-9.33-4.069-11.923c-6.192-4.608-15.989-1.143-21.386,2.759c-5.771,4.173-12.498,11.778-10.987,19.532
								c0.917,4.707,5.185,8.695,9.633,10.111C96.58,116.734,99.981,115.929,103.021,114.075z"/>
						</g>
					</g>
				</g>
			</g>
		</g>
		<g>
			<g>
				<g>
					<g>
						<g>
							<path fill="#FFFFFF" d="M145.679,114.075c-3.123-1.905-5.611-4.673-7.98-7.416c-3.008-3.483-7.467-6.96-8.44-11.662
								c-0.859-4.148,0.585-9.33,4.069-11.923c6.192-4.608,15.989-1.143,21.386,2.759c5.771,4.173,12.498,11.778,10.987,19.532
								c-0.917,4.707-5.185,8.695-9.633,10.111C152.121,116.734,148.72,115.929,145.679,114.075z"/>
						</g>
					</g>
				</g>
			</g>
		</g>
		<g>
			<g>
				<g>
					<path fill="#FFFFFF" d="M130.769,115.952h-4.03h-4.056h-4.03c0,0-4.844,1.454-3.39,6.299c1.041,3.47,5.879,7.277,9.556,7.019
						c3.489-0.245,8.327-3.643,9.34-7.019C135.613,117.405,130.769,115.952,130.769,115.952z"/>
				</g>
			</g>
		</g>
		<g>
			<g>
				<path fill="#FFFFFF" d="M151.776,166.823h-54.13c-4.17,0-8.16-1.778-10.947-4.881l-20.736-23.059
					c-6.279-6.195-8.906-16.009-6.693-25.077c0.032-0.131,0.069-0.26,0.11-0.39l11.476-36.472
					c1.714-6.605,6.196-12.26,12.356-15.665l23.874-13.198c0.409-0.227,0.822-0.437,1.249-0.628
					c10.542-4.718,24.34-4.562,33.549,0.377l24.328,13.449c6.205,3.431,10.709,9.146,12.362,15.686l11.47,36.451
					c0.04,0.129,0.077,0.259,0.109,0.39c2.213,9.068-0.414,18.882-6.693,25.077l-20.737,23.061
					C159.937,165.045,155.947,166.823,151.776,166.823z M71.237,116.918c-1.116,4.837,0.273,10.137,3.484,13.239
					c0.103,0.1,0.204,0.203,0.301,0.312l20.871,23.211c0.447,0.497,1.086,0.781,1.753,0.781h54.13c0.668,0,1.307-0.285,1.752-0.779
					l20.872-23.213c0.097-0.109,0.197-0.212,0.301-0.312c3.21-3.102,4.599-8.402,3.484-13.239l-11.461-36.424
					c-0.037-0.117-0.071-0.236-0.101-0.356c-0.844-3.368-3.163-6.254-6.394-8.04l-24.259-13.412
					c-5.701-3.059-15.656-3.052-22.593,0.054c-0.107,0.048-0.201,0.098-0.296,0.151c-0.003,0.002-0.005,0.003-0.008,0.004
					L89.193,72.098c-3.23,1.786-5.55,4.672-6.364,7.918c-0.03,0.118-0.094,0.361-0.131,0.478L71.237,116.918z M110.084,53.487h0.017
					H110.084z"/>
			</g>
		</g>
	</g>
	<g>
		<rect x="121.048" y="127.389" fill="#FFFFFF" width="7.326" height="9.615"/>
	</g>
	<g>
		<path fill="#FFFFFF" d="M116.445,143.561c-4.819,0-9.119-1.916-11.457-3.563c-1.653-1.166-2.048-3.452-0.882-5.105
			c1.162-1.649,3.439-2.044,5.09-0.893c0.332,0.229,7.262,4.874,13.24,0.132c1.584-1.257,3.887-0.991,5.146,0.596
			c1.256,1.585,0.99,3.888-0.596,5.146C123.557,142.594,119.869,143.561,116.445,143.561z"/>
	</g>
	<g>
		<path fill="#FFFFFF" d="M132.978,143.561c-3.425,0-7.111-0.968-10.542-3.686c-1.586-1.257-1.852-3.561-0.596-5.146
			c1.257-1.585,3.563-1.849,5.146-0.596c5.992,4.747,12.948,0.068,13.242-0.134c1.661-1.145,3.94-0.735,5.091,0.918
			c1.152,1.653,0.761,3.919-0.885,5.081C142.097,141.646,137.797,143.561,132.978,143.561z"/>
	</g>
</g>
</svg>
