<?xml version="1.0" encoding="utf-8"?>
<!-- Generator: Adobe Illustrator 22.1.0, SVG Export Plug-In . SVG Version: 6.00 Build 0)  -->
<svg version="1.1" id="Layer_1" xmlns="http://www.w3.org/2000/svg" xmlns:xlink="http://www.w3.org/1999/xlink" x="0px" y="0px"
	 viewBox="0 0 893.728 322.209" enable-background="new 0 0 893.728 322.209" xml:space="preserve">
<path d="M1217.967-1251.891"/>
<g>
	<g>
		<g>
			<path fill="#FFFFFF" d="M103.084,158.591c4.202-4.866,10.433-9.725,11.793-16.294c1.2-5.796-0.817-13.037-5.685-16.659
				c-8.651-6.438-22.341-1.597-29.882,3.856c-8.063,5.831-17.462,16.456-15.352,27.291c1.281,6.577,7.245,12.149,13.459,14.127
				c5.517,1.756,10.269,0.632,14.517-1.959C96.297,166.292,99.775,162.424,103.084,158.591z"/>
			<path fill="#FFFFFF" d="M164.162,129.493c-7.541-5.453-21.23-10.293-29.882-3.856c-4.868,3.623-6.885,10.863-5.685,16.659
				c1.36,6.569,7.591,11.428,11.793,16.294c3.31,3.833,6.787,7.701,11.15,10.362c4.248,2.591,9,3.715,14.517,1.959
				c6.215-1.979,12.178-7.55,13.459-14.127C181.624,145.95,172.226,135.324,164.162,129.493z"/>
			<path fill="#FFFFFF" d="M213.676,168.578c-0.045-0.183-0.096-0.364-0.152-0.545l-11.898-37.813
				c10.499-15.686,8.196-37.109-6.216-50.151c-13.62-12.326-33.609-13.139-48.058-3.057l-1.117-0.618
				c-12.867-6.901-32.145-7.118-46.875-0.526c-0.598,0.266-1.175,0.56-1.746,0.877l-1.047,0.579
				c-14.481-10.414-34.745-9.708-48.505,2.745c-14.72,13.321-16.804,35.385-5.52,51.149l-11.584,36.815
				c-0.057,0.181-0.108,0.362-0.153,0.545c-3.092,12.67,0.578,26.383,9.352,35.038l28.973,32.219
				c3.894,4.335,9.469,6.819,15.295,6.819h75.631c5.828,0,11.402-2.484,15.294-6.817l28.974-32.221
				C213.098,194.961,216.768,181.248,213.676,168.578z M192.089,191.423c-0.145,0.14-0.286,0.284-0.421,0.436l-29.163,32.433
				c-0.622,0.691-1.514,1.089-2.448,1.089H84.425c-0.933,0-1.825-0.398-2.449-1.092L52.814,191.86
				c-0.135-0.152-0.276-0.296-0.421-0.436c-4.485-4.335-6.426-11.739-4.867-18.498l16.013-50.892
				c0.052-0.163,0.141-0.502,0.183-0.668c0.536-2.138,1.554-4.155,2.937-5.961l4.962-4.491c0.328-0.207,0.649-0.422,0.993-0.612
				l33.368-18.447c0.004-0.002,0.007-0.004,0.011-0.006c0.133-0.074,0.264-0.143,0.413-0.211c9.693-4.341,23.601-4.351,31.567-0.076
				l32.116,17.755l9.137,8.269c0.684,1.246,1.229,2.563,1.577,3.948c0.042,0.167,0.089,0.334,0.141,0.498l16.013,50.892
				C198.514,179.684,196.574,187.089,192.089,191.423z"/>
			<path fill="#FFFFFF" d="M143.922,196.792c-0.379,0.261-8.698,5.834-16.562,1.463v-9.583c3.652-1.836,7.116-5.072,8.083-8.297
				c2.031-6.77-4.737-8.801-4.737-8.801h-5.63h-5.668h-5.631c0,0-6.768,2.031-4.736,8.801c0.983,3.277,4.391,6.763,8.083,8.571v9.31
				c-7.844,4.367-16.132-1.166-16.56-1.462c-2.308-1.609-5.489-1.057-7.112,1.247c-1.629,2.309-1.077,5.503,1.232,7.132
				c3.266,2.302,9.274,4.978,16.008,4.978c3.742,0,7.707-0.847,11.551-3.024c3.844,2.178,7.808,3.024,11.55,3.024
				c6.732,0,12.741-2.676,16.006-4.978c2.3-1.624,2.846-4.791,1.237-7.1C149.427,195.765,146.242,195.193,143.922,196.792z"/>
		</g>
	</g>
	<g>
		<g>
			<g>
				<path fill="#FFFFFF" d="M716.337,183.959l-12.391-45.353l-12.394,45.353h-7.586l-16.017-56.226h7.756l12.476,46.869
					l12.899-46.869h5.816l12.897,46.869l12.394-46.869h7.755l-16.019,56.226H716.337z"/>
			</g>
			<g>
				<path fill="#FFFFFF" d="M741.337,163.558c0-11.801,7.756-21.327,20.147-21.327s20.147,9.526,20.147,21.327
					c0,11.804-7.756,21.414-20.147,21.414S741.337,175.362,741.337,163.558z M774.973,163.558c0-8.261-4.805-15.68-13.489-15.68
					c-8.682,0-13.572,7.419-13.572,15.68c0,8.348,4.89,15.765,13.572,15.765C770.168,179.323,774.973,171.906,774.973,163.558z"/>
			</g>
			<g>
				<path fill="#FFFFFF" d="M796.138,183.959v-40.715h6.324v6.573c3.287-4.3,8.007-7.417,13.572-7.417v6.491
					c-0.759-0.167-1.516-0.254-2.53-0.254c-3.877,0-9.187,3.204-11.042,6.491v28.831H796.138z"/>
			</g>
			<g>
				<path fill="#FFFFFF" d="M855.909,183.959l-14.667-18.292l-6.745,6.66v11.632h-6.322v-56.226h6.322v37.174l21.412-21.663h8.009
					l-18.041,18.461l18.125,22.253H855.909z"/>
			</g>
		</g>
		<g>
			<g>
				<path fill="#FFFFFF" d="M312.822,111.876V55.648h30.011c13.151,0,20.232,8.766,20.232,19.305
					c0,10.452-7.081,19.221-20.232,19.221H329.85v17.702H312.822z M345.784,74.953c0-3.035-2.277-4.469-5.143-4.469h-10.79v8.851
					h10.79C343.507,79.335,345.784,77.903,345.784,74.953z"/>
			</g>
			<g>
				<path fill="#FFFFFF" d="M396.11,111.967v-3.879c-2.276,2.868-7.249,4.89-12.307,4.89c-6.07,0-13.995-4.13-13.995-13.402
					c0-10.116,7.925-12.984,13.995-12.984c5.311,0,10.116,1.688,12.307,4.469v-4.215c0-2.866-2.613-5.059-7.586-5.059
					c-3.794,0-8.093,1.519-11.297,3.964l-5.141-9.359c5.479-4.382,13.066-6.152,19.22-6.152c10.117,0,19.98,3.54,19.98,17.112
					v24.616H396.11z M396.11,100.923v-2.276c-1.011-1.432-3.624-2.191-5.985-2.191c-2.528,0-5.311,0.842-5.311,3.371
					s2.782,3.289,5.311,3.289C392.486,103.116,395.099,102.357,396.11,100.923z"/>
			</g>
			<g>
				<path fill="#FFFFFF" d="M449.739,111.876V89.369c0-4.215-2.276-5.818-5.901-5.818c-3.457,0-5.227,1.77-6.492,3.204v25.121
					h-15.174V71.159h15.174v4.636c2.36-2.696,6.829-5.647,13.995-5.647c9.441,0,13.572,5.731,13.572,12.812v28.916H449.739z"/>
			</g>
			<g>
				<path fill="#FFFFFF" d="M504.203,111.876v-4.3c-3.456,3.879-7.334,5.311-11.465,5.311c-9.863,0-17.956-7.417-17.956-21.412
					c0-13.487,7.925-21.327,17.956-21.327c4.132,0,8.262,1.432,11.465,5.311V55.648h15.174v56.228H504.203z M504.203,96.701V86.249
					c-1.433-1.77-4.3-2.699-6.323-2.699c-4.13,0-7.587,2.866-7.587,7.925s3.457,8.009,7.587,8.009
					C499.903,99.484,502.77,98.471,504.203,96.701z"/>
			</g>
			<g>
				<path fill="#FFFFFF" d="M555.548,111.876v-3.879c-2.276,2.868-7.249,4.89-12.307,4.89c-6.07,0-13.995-4.13-13.995-13.402
					c0-10.116,7.925-12.984,13.995-12.984c5.311,0,10.116,1.688,12.307,4.469v-4.215c0-2.866-2.613-5.059-7.586-5.059
					c-3.794,0-8.093,1.519-11.297,3.964l-5.141-9.359c5.479-4.382,13.066-6.152,19.22-6.152c10.117,0,19.98,3.54,19.98,17.112
					v24.616H555.548z M555.548,100.832v-2.276c-1.011-1.432-3.624-2.191-5.985-2.191c-2.528,0-5.311,0.842-5.311,3.371
					s2.782,3.289,5.311,3.289C551.924,103.025,554.537,102.266,555.548,100.832z"/>
			</g>
			<g>
				<path fill="#FFFFFF" d="M314.845,184.477v-56.228h22.593c11.296,0,17.619,7.756,17.619,16.945
					c0,9.187-6.491,16.943-17.619,16.943h-15.596v22.34H314.845z M347.806,145.194c0-6.324-4.552-10.708-11.211-10.708h-14.753
					V155.9h14.753C343.254,155.9,347.806,151.516,347.806,145.194z"/>
			</g>
			<g>
				<path fill="#FFFFFF" d="M368.298,184.477V143.76h6.323v6.575c3.288-4.3,8.008-7.419,13.573-7.419v6.491
					c-0.759-0.167-1.517-0.252-2.53-0.252c-3.878,0-9.188,3.204-11.043,6.491v28.831H368.298z"/>
			</g>
			<g>
				<path fill="#FFFFFF" d="M398.463,164.077c0-11.801,7.756-21.327,20.148-21.327c12.391,0,20.147,9.526,20.147,21.327
					c0,11.801-7.756,21.412-20.147,21.412C406.218,185.488,398.463,175.878,398.463,164.077z M432.099,164.077
					c0-8.261-4.805-15.68-13.488-15.68s-13.573,7.419-13.573,15.68c0,8.346,4.89,15.765,13.573,15.765
					S432.099,172.422,432.099,164.077z"/>
			</g>
			<g>
				<path fill="#FFFFFF" d="M449.109,164.077c0-11.801,7.756-21.327,20.148-21.327c12.391,0,20.147,9.526,20.147,21.327
					c0,11.801-7.756,21.412-20.147,21.412C456.865,185.488,449.109,175.878,449.109,164.077z M482.746,164.077
					c0-8.261-4.805-15.68-13.488-15.68s-13.573,7.419-13.573,15.68c0,8.346,4.89,15.765,13.573,15.765
					S482.746,172.422,482.746,164.077z"/>
			</g>
			<g>
				<path fill="#FFFFFF" d="M506.988,184.477v-35.153h-6.745v-5.564h6.745v-3.12c0-8.346,4.552-13.235,11.803-13.235
					c3.203,0,6.069,0.759,8.598,3.12l-2.613,4.13c-1.349-1.18-2.951-2.024-5.058-2.024c-4.132,0-6.407,2.868-6.407,8.009v3.12h8.261
					v5.564h-8.261v35.153H506.988z"/>
			</g>
			<g>
				<path fill="#FFFFFF" d="M531.841,166.858v-5.562h20.232v5.562H531.841z"/>
			</g>
			<g>
				<path fill="#FFFFFF" d="M565.123,164.077c0-11.801,7.754-21.327,20.148-21.327c12.391,0,20.147,9.526,20.147,21.327
					c0,11.801-7.756,21.412-20.147,21.412C572.877,185.488,565.123,175.878,565.123,164.077z M598.758,164.077
					c0-8.261-4.805-15.68-13.487-15.68c-8.684,0-13.574,7.419-13.574,15.68c0,8.346,4.89,15.765,13.574,15.765
					C593.953,179.841,598.758,172.422,598.758,164.077z"/>
			</g>
			<g>
				<path fill="#FFFFFF" d="M621.693,184.477v-35.153h-6.742v-5.564h6.742v-3.12c0-8.346,4.554-13.235,11.804-13.235
					c3.202,0,6.07,0.759,8.597,3.12l-2.612,4.13c-1.349-1.18-2.95-2.024-5.059-2.024c-4.13,0-6.406,2.868-6.406,8.009v3.12h8.261
					v5.564h-8.261v35.153H621.693z"/>
			</g>
			<g>
				<path fill="#FFFFFF" d="M644.207,166.858v-5.562h20.232v5.562H644.207z"/>
			</g>
			<g>
				<rect x="254.96" y="16.105" fill="#FFFFFF" width="7.026" height="289.999"/>
			</g>
		</g>
		<g>
			<g>
				<path fill="#FFFFFF" d="M312.275,257.079v-56.228h17.03v56.228H312.275z"/>
			</g>
			<g>
				<path fill="#FFFFFF" d="M369.857,257.079v-22.507c0-4.215-2.276-5.816-5.901-5.816c-3.458,0-5.228,1.77-6.493,3.202v25.121
					h-15.173v-40.717h15.173v4.636c2.36-2.696,6.829-5.647,13.995-5.647c9.441,0,13.572,5.731,13.572,12.812v28.916H369.857z"/>
			</g>
			<g>
				<path fill="#FFFFFF" d="M424.322,257.079v-4.3c-3.456,3.879-7.335,5.313-11.465,5.313c-9.864,0-17.956-7.419-17.956-21.414
					c0-13.487,7.925-21.327,17.956-21.327c4.13,0,8.261,1.432,11.465,5.311v-19.811h15.173v56.228H424.322z M424.322,241.906
					v-10.454c-1.434-1.77-4.3-2.696-6.324-2.696c-4.13,0-7.586,2.866-7.586,7.922c0,5.059,3.456,8.009,7.586,8.009
					C420.023,244.687,422.888,243.677,424.322,241.906z"/>
			</g>
			<g>
				<path fill="#FFFFFF" d="M449.364,236.678c0-11.801,9.02-21.327,22.171-21.327c11.971,0,21.16,8.599,21.16,22.93v3.117h-27.651
					c0.844,2.614,3.794,5.144,8.769,5.144c2.276,0,7.332-1.096,9.357-2.866l6.239,9.357c-4.048,3.456-11.298,5.059-17.366,5.059
					C459.313,258.092,449.364,250.083,449.364,236.678z M471.535,226.901c-4.636,0-6.152,3.035-6.66,4.888h13.405
					C477.859,230.018,476.425,226.901,471.535,226.901z"/>
			</g>
			<g>
				<path fill="#FFFFFF" d="M526.254,257.079l-6.322-10.79l-6.493,10.79h-16.522l13.32-20.906l-12.476-19.811h16.607l5.48,9.526
					l5.48-9.526h16.607l-12.476,19.811l13.402,20.906H526.254z"/>
			</g>
			<g>
				<path fill="#FFFFFF" d="M576.336,257.079v-56.228h42.657v14.836h-25.629v5.564h25.037v14.836h-25.037v20.991H576.336z"/>
			</g>
			<g>
				<path fill="#FFFFFF" d="M657.611,257.079v-4.551c-2.36,2.612-6.829,5.564-13.995,5.564c-9.441,0-13.489-5.649-13.489-12.645
					v-29.085h15.175v22.592c0,4.133,2.191,5.734,5.901,5.734c3.373,0,5.144-1.77,6.408-3.204v-25.121h15.173v40.717H657.611z"/>
			</g>
			<g>
				<path fill="#FFFFFF" d="M713.002,257.079v-22.507c0-4.215-2.276-5.816-5.901-5.816c-3.456,0-5.226,1.77-6.491,3.202v25.121
					h-15.175v-40.717h15.175v4.636c2.36-2.696,6.827-5.647,13.992-5.647c9.443,0,13.574,5.731,13.574,12.812v28.916H713.002z"/>
			</g>
			<g>
				<path fill="#FFFFFF" d="M767.467,257.079v-4.3c-3.458,3.879-7.335,5.313-11.465,5.313c-9.864,0-17.956-7.419-17.956-21.414
					c0-13.487,7.922-21.327,17.956-21.327c4.13,0,8.261,1.432,11.465,5.311v-19.811h15.173v56.228H767.467z M767.467,241.906
					v-10.454c-1.434-1.77-4.3-2.696-6.324-2.696c-4.13,0-7.586,2.866-7.586,7.922c0,5.059,3.456,8.009,7.586,8.009
					C763.167,244.687,766.033,243.677,767.467,241.906z"/>
			</g>
			<g>
				<path fill="#FFFFFF" d="M791.836,251.853l6.07-10.2c3.202,2.53,10.116,5.141,14.667,5.141c3.12,0,4.046-0.757,4.046-1.77
					c0-3.877-23.097,1.098-23.097-15.763c0-7.335,6.406-13.91,18.21-13.91c6.827,0,12.897,2.106,17.617,5.226l-5.565,9.864
					c-2.527-2.109-7.248-4.215-11.971-4.215c-2.191,0-3.792,0.842-3.792,1.77c0,3.371,23.097-0.844,23.097,16.101
					c0,8.092-7.25,13.995-19.305,13.995C804.312,258.092,796.218,255.478,791.836,251.853z"/>
			</g>
		</g>
	</g>
</g>
</svg>