<?xml version="1.0" encoding="utf-8"?>
<!-- Generator: Adobe Illustrator 22.1.0, SVG Export Plug-In . SVG Version: 6.00 Build 0)  -->
<svg version="1.1" id="Layer_1" xmlns="http://www.w3.org/2000/svg" xmlns:xlink="http://www.w3.org/1999/xlink" x="0px" y="0px"
	 viewBox="0 0 717.072 348.397" enable-background="new 0 0 717.072 348.397" xml:space="preserve">
<g>
	<g>
		<g>
			<g>
				<path fill="#FFFFFF" d="M515.391,197.053L503,151.7l-12.394,45.353h-7.586l-16.017-56.226h7.756l12.476,46.869l12.899-46.869
					h5.816l12.897,46.869l12.394-46.869h7.756l-16.019,56.226H515.391z"/>
			</g>
			<g>
				<path fill="#FFFFFF" d="M540.391,176.652c0-11.801,7.756-21.327,20.147-21.327s20.147,9.526,20.147,21.327
					c0,11.804-7.756,21.414-20.147,21.414S540.391,188.456,540.391,176.652z M574.028,176.652c0-8.261-4.805-15.68-13.489-15.68
					c-8.682,0-13.572,7.419-13.572,15.68c0,8.348,4.89,15.765,13.572,15.765C569.222,192.417,574.028,185,574.028,176.652z"/>
			</g>
			<g>
				<path fill="#FFFFFF" d="M595.192,197.053v-40.715h6.324v6.573c3.287-4.3,8.007-7.417,13.572-7.417v6.491
					c-0.759-0.167-1.516-0.254-2.53-0.254c-3.877,0-9.187,3.204-11.042,6.491v28.831H595.192z"/>
			</g>
			<g>
				<path fill="#FFFFFF" d="M654.963,197.053l-14.667-18.292l-6.745,6.66v11.632h-6.322v-56.226h6.322v37.174l21.412-21.663h8.009
					L644.932,174.8l18.125,22.253H654.963z"/>
			</g>
		</g>
		<g>
			<g>
				<path fill="#FFFFFF" d="M111.876,124.97V68.742h30.011c13.151,0,20.232,8.766,20.232,19.305
					c0,10.452-7.081,19.221-20.232,19.221h-12.983v17.702H111.876z M144.838,88.047c0-3.035-2.277-4.469-5.143-4.469h-10.791v8.851
					h10.791C142.561,92.429,144.838,90.997,144.838,88.047z"/>
			</g>
			<g>
				<path fill="#FFFFFF" d="M195.164,125.061v-3.879c-2.276,2.868-7.249,4.89-12.307,4.89c-6.07,0-13.995-4.13-13.995-13.402
					c0-10.116,7.925-12.984,13.995-12.984c5.311,0,10.116,1.688,12.307,4.469v-4.215c0-2.866-2.613-5.059-7.586-5.059
					c-3.794,0-8.093,1.519-11.297,3.964l-5.141-9.359c5.479-4.382,13.066-6.152,19.22-6.152c10.117,0,19.98,3.54,19.98,17.112
					v24.616H195.164z M195.164,114.017v-2.276c-1.011-1.432-3.624-2.191-5.985-2.191c-2.528,0-5.311,0.842-5.311,3.371
					s2.782,3.289,5.311,3.289C191.54,116.21,194.153,115.451,195.164,114.017z"/>
			</g>
			<g>
				<path fill="#FFFFFF" d="M248.793,124.97v-22.507c0-4.215-2.276-5.818-5.901-5.818c-3.457,0-5.227,1.77-6.492,3.204v25.121
					h-15.174V84.253h15.174v4.636c2.36-2.696,6.829-5.647,13.995-5.647c9.441,0,13.572,5.731,13.572,12.812v28.916H248.793z"/>
			</g>
			<g>
				<path fill="#FFFFFF" d="M303.257,124.97v-4.3c-3.456,3.879-7.334,5.311-11.465,5.311c-9.863,0-17.956-7.417-17.956-21.412
					c0-13.487,7.925-21.327,17.956-21.327c4.132,0,8.262,1.432,11.465,5.311V68.742h15.174v56.228H303.257z M303.257,109.795V99.343
					c-1.433-1.77-4.3-2.699-6.323-2.699c-4.13,0-7.587,2.866-7.587,7.925s3.457,8.009,7.587,8.009
					C298.957,112.578,301.824,111.565,303.257,109.795z"/>
			</g>
			<g>
				<path fill="#FFFFFF" d="M354.602,124.97v-3.879c-2.276,2.868-7.249,4.89-12.307,4.89c-6.07,0-13.995-4.13-13.995-13.402
					c0-10.116,7.925-12.984,13.995-12.984c5.311,0,10.116,1.688,12.307,4.469v-4.215c0-2.866-2.613-5.059-7.586-5.059
					c-3.794,0-8.093,1.519-11.297,3.964l-5.141-9.359c5.479-4.382,13.066-6.152,19.22-6.152c10.117,0,19.98,3.54,19.98,17.112
					v24.616H354.602z M354.602,113.925v-2.276c-1.011-1.432-3.624-2.191-5.985-2.191c-2.528,0-5.311,0.842-5.311,3.371
					s2.782,3.289,5.311,3.289C350.978,116.119,353.591,115.359,354.602,113.925z"/>
			</g>
			<g>
				<path fill="#FFFFFF" d="M113.899,197.571v-56.228h22.593c11.296,0,17.619,7.756,17.619,16.945
					c0,9.187-6.491,16.943-17.619,16.943h-15.596v22.34H113.899z M146.861,158.288c0-6.324-4.552-10.708-11.211-10.708h-14.753
					v21.414h14.753C142.308,168.994,146.861,164.61,146.861,158.288z"/>
			</g>
			<g>
				<path fill="#FFFFFF" d="M167.352,197.571v-40.717h6.323v6.575c3.288-4.3,8.008-7.419,13.573-7.419v6.491
					c-0.759-0.167-1.517-0.252-2.53-0.252c-3.878,0-9.188,3.204-11.043,6.491v28.831H167.352z"/>
			</g>
			<g>
				<path fill="#FFFFFF" d="M197.517,177.17c0-11.801,7.756-21.327,20.148-21.327c12.391,0,20.147,9.526,20.147,21.327
					s-7.756,21.412-20.147,21.412C205.273,198.582,197.517,188.972,197.517,177.17z M231.154,177.17
					c0-8.261-4.805-15.68-13.488-15.68s-13.573,7.419-13.573,15.68c0,8.346,4.89,15.765,13.573,15.765
					S231.154,185.516,231.154,177.17z"/>
			</g>
			<g>
				<path fill="#FFFFFF" d="M248.164,177.17c0-11.801,7.756-21.327,20.148-21.327c12.391,0,20.147,9.526,20.147,21.327
					s-7.756,21.412-20.147,21.412C255.919,198.582,248.164,188.972,248.164,177.17z M281.8,177.17c0-8.261-4.805-15.68-13.488-15.68
					s-13.573,7.419-13.573,15.68c0,8.346,4.89,15.765,13.573,15.765S281.8,185.516,281.8,177.17z"/>
			</g>
			<g>
				<path fill="#FFFFFF" d="M306.043,197.571v-35.153h-6.745v-5.565h6.745v-3.12c0-8.346,4.552-13.235,11.803-13.235
					c3.203,0,6.069,0.759,8.598,3.12l-2.613,4.13c-1.349-1.18-2.952-2.024-5.058-2.024c-4.132,0-6.407,2.868-6.407,8.009v3.12h8.261
					v5.565h-8.261v35.153H306.043z"/>
			</g>
			<g>
				<path fill="#FFFFFF" d="M330.895,179.952v-5.562h20.232v5.562H330.895z"/>
			</g>
			<g>
				<path fill="#FFFFFF" d="M364.177,177.17c0-11.801,7.754-21.327,20.148-21.327c12.391,0,20.147,9.526,20.147,21.327
					s-7.756,21.412-20.147,21.412C371.932,198.582,364.177,188.972,364.177,177.17z M397.812,177.17
					c0-8.261-4.805-15.68-13.487-15.68c-8.684,0-13.574,7.419-13.574,15.68c0,8.346,4.89,15.765,13.574,15.765
					C393.007,192.935,397.812,185.516,397.812,177.17z"/>
			</g>
			<g>
				<path fill="#FFFFFF" d="M420.747,197.571v-35.153h-6.742v-5.565h6.742v-3.12c0-8.346,4.554-13.235,11.804-13.235
					c3.202,0,6.07,0.759,8.597,3.12l-2.612,4.13c-1.349-1.18-2.95-2.024-5.059-2.024c-4.13,0-6.406,2.868-6.406,8.009v3.12h8.261
					v5.565h-8.261v35.153H420.747z"/>
			</g>
			<g>
				<path fill="#FFFFFF" d="M443.261,179.952v-5.562h20.232v5.562H443.261z"/>
			</g>
			<g>
				<rect x="54.014" y="29.199" fill="#FFFFFF" width="7.026" height="289.999"/>
			</g>
		</g>
		<g>
			<g>
				<path fill="#FFFFFF" d="M111.33,270.173v-56.228h17.03v56.228H111.33z"/>
			</g>
			<g>
				<path fill="#FFFFFF" d="M168.912,270.173v-22.507c0-4.215-2.276-5.816-5.901-5.816c-3.458,0-5.228,1.77-6.493,3.202v25.121
					h-15.173v-40.717h15.173v4.636c2.36-2.696,6.829-5.647,13.995-5.647c9.441,0,13.572,5.731,13.572,12.812v28.916H168.912z"/>
			</g>
			<g>
				<path fill="#FFFFFF" d="M223.377,270.173v-4.3c-3.456,3.879-7.335,5.313-11.465,5.313c-9.864,0-17.956-7.419-17.956-21.414
					c0-13.487,7.925-21.327,17.956-21.327c4.13,0,8.261,1.432,11.465,5.311v-19.811h15.173v56.228H223.377z M223.377,255v-10.454
					c-1.434-1.77-4.3-2.696-6.324-2.696c-4.13,0-7.586,2.866-7.586,7.923c0,5.059,3.456,8.009,7.586,8.009
					C219.077,257.781,221.943,256.771,223.377,255z"/>
			</g>
			<g>
				<path fill="#FFFFFF" d="M248.418,249.772c0-11.801,9.02-21.327,22.171-21.327c11.971,0,21.16,8.599,21.16,22.93v3.117h-27.651
					c0.844,2.614,3.794,5.144,8.769,5.144c2.276,0,7.332-1.096,9.357-2.866l6.239,9.357c-4.048,3.456-11.298,5.059-17.366,5.059
					C258.367,271.186,248.418,263.177,248.418,249.772z M270.589,239.995c-4.636,0-6.152,3.035-6.66,4.888h13.405
					C276.913,243.112,275.479,239.995,270.589,239.995z"/>
			</g>
			<g>
				<path fill="#FFFFFF" d="M325.308,270.173l-6.322-10.791l-6.493,10.791h-16.522l13.32-20.906l-12.476-19.811h16.607l5.48,9.526
					l5.48-9.526h16.607l-12.476,19.811l13.402,20.906H325.308z"/>
			</g>
			<g>
				<path fill="#FFFFFF" d="M375.391,270.173v-56.228h42.657v14.836h-25.629v5.564h25.037v14.836h-25.037v20.991H375.391z"/>
			</g>
			<g>
				<path fill="#FFFFFF" d="M456.665,270.173v-4.551c-2.36,2.612-6.829,5.565-13.995,5.565c-9.441,0-13.489-5.649-13.489-12.645
					v-29.085h15.175v22.592c0,4.133,2.191,5.734,5.901,5.734c3.373,0,5.144-1.77,6.408-3.204v-25.121h15.173v40.717H456.665z"/>
			</g>
			<g>
				<path fill="#FFFFFF" d="M512.056,270.173v-22.507c0-4.215-2.276-5.816-5.901-5.816c-3.456,0-5.226,1.77-6.491,3.202v25.121
					H484.49v-40.717h15.175v4.636c2.36-2.696,6.827-5.647,13.992-5.647c9.443,0,13.574,5.731,13.574,12.812v28.916H512.056z"/>
			</g>
			<g>
				<path fill="#FFFFFF" d="M566.521,270.173v-4.3c-3.458,3.879-7.335,5.313-11.465,5.313c-9.864,0-17.956-7.419-17.956-21.414
					c0-13.487,7.922-21.327,17.956-21.327c4.13,0,8.261,1.432,11.465,5.311v-19.811h15.173v56.228H566.521z M566.521,255v-10.454
					c-1.434-1.77-4.3-2.696-6.324-2.696c-4.13,0-7.586,2.866-7.586,7.923c0,5.059,3.456,8.009,7.586,8.009
					C562.221,257.781,565.087,256.771,566.521,255z"/>
			</g>
			<g>
				<path fill="#FFFFFF" d="M590.89,264.947l6.07-10.2c3.202,2.53,10.116,5.141,14.667,5.141c3.12,0,4.046-0.757,4.046-1.77
					c0-3.877-23.097,1.098-23.097-15.763c0-7.335,6.406-13.91,18.21-13.91c6.827,0,12.897,2.106,17.617,5.226l-5.564,9.864
					c-2.527-2.109-7.248-4.215-11.971-4.215c-2.191,0-3.792,0.842-3.792,1.77c0,3.371,23.097-0.844,23.097,16.101
					c0,8.092-7.25,13.995-19.305,13.995C603.366,271.186,595.272,268.572,590.89,264.947z"/>
			</g>
		</g>
	</g>
</g>
</svg>
