<?xml version="1.0" encoding="utf-8"?>
<!-- Generator: Adobe Illustrator 22.1.0, SVG Export Plug-In . SVG Version: 6.00 Build 0)  -->
<svg version="1.1" id="Layer_1" xmlns="http://www.w3.org/2000/svg" xmlns:xlink="http://www.w3.org/1999/xlink" x="0px" y="0px"
	 viewBox="0 0 385.748 359.79" enable-background="new 0 0 385.748 359.79" xml:space="preserve">
<g>
	<path fill="#FFFFFF" d="M161.552,183.538c6.871-7.956,17.059-15.9,19.282-26.642c1.962-9.476-1.336-21.315-9.295-27.238
		c-14.146-10.526-36.528-2.612-48.858,6.304c-13.184,9.534-28.551,26.907-25.101,44.622c2.094,10.754,11.845,19.864,22.007,23.099
		c9.02,2.871,16.79,1.033,23.735-3.203C150.455,196.129,156.141,189.804,161.552,183.538z"/>
	<path fill="#FFFFFF" d="M261.417,135.962c-12.33-8.916-34.712-16.83-48.858-6.304c-7.96,5.923-11.257,17.762-9.295,27.238
		c2.223,10.741,12.411,18.686,19.282,26.642c5.412,6.267,11.097,12.591,18.231,16.943c6.945,4.236,14.715,6.074,23.735,3.203
		c10.161-3.235,19.912-12.345,22.007-23.099C289.968,162.869,274.601,145.495,261.417,135.962z"/>
	<path fill="#FFFFFF" d="M342.375,199.866c-0.073-0.299-0.158-0.595-0.248-0.89l-19.454-61.826
		c17.166-25.647,13.4-60.675-10.163-81.999c-22.269-20.153-54.952-21.484-78.576-4.998l-1.827-1.01
		c-21.038-11.283-52.559-11.638-76.643-0.861c-0.977,0.435-1.921,0.916-2.854,1.434l-1.712,0.946
		C127.22,33.635,94.088,34.79,71.589,55.151c-24.068,21.781-27.475,57.855-9.025,83.631l-18.94,60.194
		c-0.093,0.296-0.177,0.591-0.25,0.89c-5.055,20.715,0.946,43.137,15.29,57.289l47.372,52.679
		c6.367,7.088,15.481,11.15,25.008,11.15h123.661c9.529,0,18.643-4.062,25.006-11.146l47.374-52.683
		C341.429,243.003,347.43,220.582,342.375,199.866z M307.078,237.22c-0.236,0.228-0.467,0.465-0.688,0.713l-47.683,53.03
		c-1.016,1.131-2.476,1.781-4.003,1.781H131.044c-1.525,0-2.984-0.65-4.005-1.785l-47.681-53.026
		c-0.221-0.248-0.451-0.485-0.688-0.713c-7.334-7.088-10.507-19.195-7.958-30.246l26.182-83.211c0.085-0.266,0.23-0.822,0.299-1.092
		c0.876-3.495,2.54-6.794,4.802-9.747l8.113-7.342c0.537-0.339,1.062-0.69,1.623-1.001l54.558-30.161
		c0.006-0.004,0.012-0.006,0.018-0.01c0.217-0.12,0.431-0.234,0.676-0.345c15.848-7.098,38.588-7.113,51.613-0.124l52.51,29.031
		l14.94,13.521c1.119,2.038,2.01,4.191,2.578,6.456c0.069,0.274,0.146,0.545,0.23,0.814l26.182,83.211
		C317.584,218.025,314.412,230.132,307.078,237.22z"/>
	<path fill="#FFFFFF" d="M228.323,245.998c-0.619,0.426-14.221,9.539-27.08,2.392v-15.668c5.971-3.002,11.634-8.293,13.216-13.565
		c3.321-11.068-7.745-14.389-7.745-14.389h-9.206h-9.267h-9.206c0,0-11.065,3.321-7.744,14.39
		c1.608,5.358,7.18,11.057,13.216,14.013v15.222c-12.826,7.139-26.376-1.907-27.076-2.39c-3.773-2.631-8.975-1.728-11.629,2.039
		c-2.664,3.776-1.761,8.998,2.014,11.662c5.34,3.763,15.163,8.139,26.173,8.139c6.118,0,12.602-1.384,18.886-4.945
		c6.284,3.56,12.766,4.945,18.885,4.945c11.008,0,20.833-4.376,26.171-8.139c3.761-2.656,4.654-7.833,2.023-11.608
		C237.324,244.319,232.116,243.383,228.323,245.998z"/>
</g>
</svg>
